<?xml version="1.0" encoding="utf-8"?>
<!-- Generator: Adobe Illustrator 17.0.0, SVG Export Plug-In . SVG Version: 6.00 Build 0)  -->
<!DOCTYPE svg PUBLIC "-//W3C//DTD SVG 1.1//EN" "http://www.w3.org/Graphics/SVG/1.1/DTD/svg11.dtd">
<svg version="1.1" id="Capa_1" xmlns="http://www.w3.org/2000/svg" xmlns:xlink="http://www.w3.org/1999/xlink" x="0px" y="0px"
	 width="16px" height="16px" viewBox="0 0 16 16" enable-background="new 0 0 16 16" xml:space="preserve">
<g>
	<path fill="#222222" d="M9.427,8l6.468-6.468c0.139-0.139,0.139-0.365,0-0.505l-0.922-0.923C14.906,0.038,14.815,0,14.721,0
		c-0.095,0-0.186,0.038-0.252,0.105L8,6.573L1.532,0.105c-0.134-0.134-0.371-0.134-0.505,0L0.105,1.027
		c-0.139,0.139-0.139,0.365,0,0.505L6.573,8l-6.468,6.468c-0.139,0.139-0.139,0.365,0,0.505l0.922,0.923
		C1.094,15.962,1.185,16,1.28,16s0.185-0.038,0.252-0.105L8,9.427l6.468,6.468C14.535,15.962,14.626,16,14.721,16
		s0.186-0.038,0.252-0.105l0.922-0.923c0.139-0.139,0.139-0.365,0-0.505L9.427,8z"/>
</g>
</svg>
