<?xml version="1.0" encoding="utf-8"?>
<!-- Generator: Adobe Illustrator 17.0.0, SVG Export Plug-In . SVG Version: 6.00 Build 0)  -->
<!DOCTYPE svg PUBLIC "-//W3C//DTD SVG 1.1//EN" "http://www.w3.org/Graphics/SVG/1.1/DTD/svg11.dtd">
<svg version="1.1" id="Layer_1" xmlns="http://www.w3.org/2000/svg" xmlns:xlink="http://www.w3.org/1999/xlink" x="0px" y="0px"
	 width="1130.654px" height="98.834px" viewBox="0 0 1130.654 98.834" enable-background="new 0 0 1130.654 98.834"
	 xml:space="preserve">
<g>
	<g>
		<g>
			<text transform="matrix(1 0 0 1 157.2402 95.5545)" fill="#F76E39" font-family="'ProximaNova-Light'" font-size="16.4962">Grote aankoop</text>
			<text transform="matrix(1 0 0 1 157.2402 95.5545)" fill="#F76E39" font-family="'ProximaNova-Light'" font-size="16.4962">Grote aankoop</text>
		</g>
		<g>
			<polygon fill="#F76E39" points="218.669,1.686 215.255,1.686 215.255,44.008 186.471,44.008 194.663,57.207 230.16,57.207 
				238.35,44.008 218.669,44.008 			"/>
			<polygon fill="#F76E39" points="212.33,3.691 181.692,40.373 212.33,40.373 			"/>
			<polygon fill="#F76E39" points="221.823,18.412 221.823,40.108 239.946,40.108 			"/>
		</g>
	</g>
	<g>
		<text transform="matrix(1 0 0 1 1080.1372 95.5545)" fill="#F76E39" font-family="'ProximaNova-Light'" font-size="16.4962">Anders</text>
		<g>
			<path fill="#F76E39" d="M1104.139,4.686c8.566,0,16.999,3.945,16.999,13.381c0,8.702-9.971,12.048-12.113,15.192
				c-1.608,2.339-1.071,5.625-5.488,5.625c-2.877,0-4.283-2.34-4.283-4.482c0-7.969,11.709-9.772,11.709-16.334
				c0-3.612-2.404-5.753-6.421-5.753c-8.566,0-5.221,8.831-11.709,8.831c-2.342,0-4.352-1.406-4.352-4.081
				C1088.479,10.502,1095.972,4.686,1104.139,4.686z M1103.806,43.229c3.007,0,5.488,2.473,5.488,5.49s-2.476,5.49-5.488,5.49
				c-3.012,0-5.49-2.47-5.49-5.49C1098.316,45.704,1100.794,43.229,1103.806,43.229z"/>
		</g>
	</g>
	<g>
		<text transform="matrix(1 0 0 1 707.8584 95.5546)" fill="#F76E39" font-family="'ProximaNova-Light'" font-size="16.4962">Studie kind</text>
		<g>
			<path fill="#F76E39" d="M720.154,5.101h10.361v5.18h-10.361V5.101z M720.154,12.353h10.361V47.58h-10.361V12.353z
				 M722.053,41.061c0,1.789,1.449,3.238,3.238,3.238c1.789,0,3.238-1.449,3.238-3.238s-1.449-3.238-3.238-3.238
				C723.502,37.823,722.053,39.273,722.053,41.061z M720.154,53.796h10.361v-4.144h-10.361V53.796z M732.587,48.928v0.725v4.144
				h13.469v-4.895c-0.55-0.393-2.259-1.321-6.216-1.321C736.087,47.58,733.691,48.421,732.587,48.928z M732.587,19.122
				c1.105,0.506,3.501,1.347,7.252,1.347c3.933-0.001,5.646-0.918,6.216-1.329v-3.68h-13.469V19.122z M732.587,21.366v25.318
				c1.5-0.561,3.903-1.175,7.252-1.175c3.022,0,4.983,0.506,6.216,1.046V21.497c-1.233,0.539-3.194,1.045-6.216,1.045
				C736.489,22.541,734.087,21.927,732.587,21.366z M768.026,4.868l-7.104,1.458l1.042,5.074l7.104-1.458L768.026,4.868z
				 M776.563,46.482l-7.103,1.458l-7.081-34.509l7.104-1.458L776.563,46.482z M774.098,40.331c-0.359-1.751-1.76-2.943-3.123-2.663
				c-1.366,0.281-2.183,1.929-1.822,3.68c0.359,1.751,1.758,2.944,3.122,2.663C773.642,43.731,774.459,42.084,774.098,40.331z
				 M776.98,48.509l-7.106,1.459l0.834,4.058l7.104-1.458L776.98,48.509z M749.164,10.281h10.361v-5.18h-10.361V10.281z
				 M749.164,53.796h10.361v-4.144h-10.361V53.796z M749.164,42.4h10.361V17.533h-10.361V42.4z M749.164,47.58h10.361v-3.108
				h-10.361V47.58z M749.164,15.461h10.361v-3.108h-10.361V15.461z"/>
		</g>
	</g>
	<g>
		<text transform="matrix(1 0 0 1 350.4058 95.555)" fill="#F76E39" font-family="'ProximaNova-Light'" font-size="16.4962">Hypotheek</text>
		<g>
			<g>
				<path fill="#F76E39" d="M367.47,28.432v0.857v24.278h22.101V34.991h11.685v18.575h7.917V29.289v-0.857l-20.851-15.567
					L367.47,28.432z M383.43,44.785h-9.794v-9.794h9.794L383.43,44.785L383.43,44.785z"/>
				<path fill="#F76E39" d="M415.516,25.275l-6.24-4.153c0-5.325,0-11.5,0-11.5h-7.314c0,0,0,2.669,0,6.009L388.236,5.326
					l-26.91,19.953c-0.623,0.475-0.744,1.365-0.27,1.988c0.474,0.623,1.364,0.745,1.988,0.27l25.203-18.656l25.566,18.662
					c0.255,0.192,0.554,0.284,0.851,0.284c0.431,0,0.857-0.196,1.136-0.567C416.269,26.634,416.142,25.745,415.516,25.275z"/>
			</g>
		</g>
	</g>
	<g>
		<text transform="matrix(1 0 0 1 522.8599 95.5546)" fill="#F76E39" font-family="'ProximaNova-Light'" font-size="16.4962">Tweede huis</text>
		<g>
			<g>
				<g>
					<path fill="#F76E39" d="M543.354,28.432v0.857v24.278h22.101V34.991h11.685v18.575h7.917V29.289v-0.857l-20.852-15.567
						L543.354,28.432z M559.314,44.785h-9.794v-9.794h9.794L559.314,44.785L559.314,44.785z"/>
					<path fill="#F76E39" d="M591.399,25.275l-6.24-4.153c0-5.325,0-11.5,0-11.5h-7.314c0,0,0,2.669,0,6.009L564.12,5.326
						l-26.91,19.953c-0.623,0.475-0.744,1.365-0.27,1.988c0.474,0.623,1.364,0.745,1.988,0.27l25.203-18.656l25.566,18.662
						c0.255,0.192,0.554,0.284,0.851,0.284c0.43,0,0.857-0.196,1.135-0.567C592.152,26.634,592.026,25.745,591.399,25.275z"/>
				</g>
			</g>
			<g>
				<g>
					<path fill="#F76E39" d="M587.657,45.297v0.282v7.988h7.271v-6.112h3.845v6.112h2.605v-7.988v-0.282l-6.86-5.122L587.657,45.297
						z M592.908,50.678h-3.222v-3.222h3.222L592.908,50.678L592.908,50.678z"/>
					<path fill="#F76E39" d="M603.465,44.259l-2.053-1.367c0-1.752,0-3.784,0-3.784h-2.406c0,0,0,0.878,0,1.977l-4.516-3.39
						l-8.854,6.565c-0.205,0.156-0.245,0.449-0.089,0.654c0.156,0.205,0.449,0.245,0.654,0.089l8.292-6.138l8.412,6.14
						c0.084,0.063,0.182,0.093,0.28,0.093c0.142,0,0.282-0.064,0.374-0.186C603.712,44.706,603.671,44.413,603.465,44.259z"/>
				</g>
			</g>
		</g>
	</g>
	<g>
		<text transform="matrix(1 0 0 1 891.8203 95.5545)" fill="#F76E39" font-family="'ProximaNova-Light'" font-size="16.4962">Zorgpotje</text>
		<g>
			<g>
				<path fill="#F76E39" d="M914.963,31.875l4.656-9.236l3.395,10.116l5.195-16.749l4.106,20.362l3.62-4.488l11.04-0.002
					c2.787-3.788,4.344-7.461,4.344-11.453c0-7.567-5.902-13.417-13.522-13.417c-4.178,0-8.359,1.952-11.063,5.121
					c-2.704-3.168-6.884-5.121-11.063-5.121c-7.62,0-13.522,5.85-13.522,13.414c0,3.133,0.972,6.074,2.735,9.025h-5.078v2.428h6.685
					h5.558L914.963,31.875L914.963,31.875z"/>
				<path fill="#F76E39" d="M953.662,34.305h-17.137l-4.896,6.072l-3.92-14.487l-4.647,12.059l-3.673-9.716l-2.915,6.072h-8.035
					c3.662,4.279,8.742,8.803,14.859,14.166l3.438,3.415l3.438-3.415c4.979-4.364,9.225-8.166,12.622-11.738h10.867V34.305
					L953.662,34.305z"/>
			</g>
		</g>
	</g>
	<g>
		<text transform="matrix(1 0 0 1 -1.3901 95.5545)" fill="#F76E39" font-family="'ProximaNova-Light'" font-size="16.4962">Pensioen</text>
		<g>
			<g>
				<path fill="#F76E39" d="M46.222,15.015c1.032,0.349,2.642-0.477,2.838-2.241c0.119-1.075-0.211-2.124-1.256-2.459l-4.16-0.388
					c-1.449-0.43-2.999,0.389-3.459,1.831l-3.847,10.345l-1.96,0.458L33.666,3.753c0.016-1.513-1.201-2.777-2.711-2.821L26.883,0
					c-1.096-0.009-1.739,0.886-1.962,1.944c-0.367,1.736,0.905,3.024,1.994,3.015l4.443,0.236l0.716,17.904l-3.178,0.743
					l-5.4-14.521c-0.46-1.442-2.009-2.261-3.459-1.831l-4.159,0.388c-1.043,0.336-1.374,1.385-1.256,2.459
					c0.196,1.764,1.806,2.589,2.838,2.241l4.294-1.167l4.852,12.965l-0.67,0.156c-1.434,0-2.63,1.005-2.932,2.349
					c-1.412,0.377-6.164,2.418-5.428,12.643c0.459,6.367,3.082,9.975,5.35,11.933v4.425c0,1.663,1.348,3.01,3.01,3.01h12.878
					c1.663,0,3.01-1.347,3.01-3.01v-0.502h2.73c1.109,0,2.006-0.898,2.006-2.006V42.035c0-1.109-0.898-2.006-2.006-2.006h-2.73
					v-7.217h0.815c1.108,0,2.006-0.899,2.006-2.006V25.79c0-1.109-0.899-2.006-2.006-2.006h-0.921
					c-0.316-1.223-1.377-2.137-2.672-2.238l2.88-7.695L46.222,15.015z M22.929,46.922c-1.13-1.72-2.101-4.166-2.349-7.612
					c-0.44-6.109,1.248-8.314,2.349-9.101V46.922z"/>
			</g>
		</g>
	</g>
</g>
</svg>
