<?xml version="1.0" encoding="utf-8"?>
<!-- Generator: Adobe Illustrator 17.0.0, SVG Export Plug-In . SVG Version: 6.00 Build 0)  -->
<!DOCTYPE svg PUBLIC "-//W3C//DTD SVG 1.1//EN" "http://www.w3.org/Graphics/SVG/1.1/DTD/svg11.dtd">
<svg version="1.1" id="Capa_1" xmlns="http://www.w3.org/2000/svg" xmlns:xlink="http://www.w3.org/1999/xlink" x="0px" y="0px"
	 width="426.655px" height="512px" viewBox="42.672 0 426.655 512" enable-background="new 42.672 0 426.655 512"
	 xml:space="preserve">
<g>
	<path fill="#FFFFFF" d="M467.227,270.754c-9.25-55.114-49.697-65.791-67.262-67.798c-12.473-16.786-30.526-25.97-51.282-25.97
		c-4.978,0-9.654,0.707-13.854,1.484c-12.314-14.181-28.774-21.663-48.04-21.663c-0.391,0-1.49,0-1.49,0V87.33
		c0-30.427-22.85-53.374-53.279-53.374s-53.279,22.945-53.279,53.374v133.924l-1.316-1.892
		c-10.074-16.384-26.312-25.772-44.541-25.774c-19.644-0.002-38.604,11.089-48.274,28.251c-9.235,16.397-8.779,35.491,1.245,52.51
		l116.512,223.118c4.647,8.897,13.766,14.533,23.803,14.533h164.057c14.167,0,25.944-11.187,26.813-25.329l3.812-62.145
		C461.55,361.896,475,317.058,467.227,270.754z M398.756,418.323l-4.105,66.972c-0.142,2.337-2.081,4.27-4.421,4.27H226.172
		c-1.649,0-3.161-1.028-3.926-2.49L105.436,263.454c-14.823-24.463,6.068-47.409,27.404-47.407
		c9.439,0.002,18.967,4.474,25.523,15.296l14.944,22.951c3.09,4.748,7.885,6.872,12.548,6.872c7.678,0,15.318-5.771,15.318-15.099
		V87.33c0-20.627,15.374-30.941,30.846-30.941s30.846,10.314,30.846,30.941v90.243c0,2.516,2.069,4.444,4.417,4.444
		c0.439,0,0.899-0.069,1.348-0.213c4.318-1.391,10.704-2.926,17.853-2.924c12.28,0,26.828,4.528,37.058,22.076
		c0.864,1.479,2.419,2.359,4.045,2.359c0.52,0,1.051-0.092,1.565-0.28c4.113-1.514,11.299-3.612,19.534-3.612
		c11.465,0,24.966,4.068,35.039,19.442c2.402,3.668,6.468,5.889,10.843,6.135c13.905,0.789,43.494,7.496,50.54,49.469
		c6.764,40.301-4.894,80.006-45.62,141.687C399.059,416.799,398.803,417.551,398.756,418.323z"/>
	<path fill="#FFFFFF" d="M107.199,11.217C107.199,5.024,102.178,0,95.982,0c-6.193,0-11.217,5.023-11.217,11.217v107.034
		L62.015,95.812c-4.378-4.378-11.637-4.38-16.019,0.002c-4.38,4.38-4.457,11.482-0.077,15.862l41.813,41.849
		c4.378,4.378,11.461,4.38,15.843-0.002l42.939-42.95c4.38-4.38,4.374-11.482-0.007-15.862c-2.189-2.189-5.062-3.285-7.934-3.285
		c-2.87,0-5.431,1.095-7.622,3.286l-23.753,24.065C107.199,118.778,107.199,11.217,107.199,11.217z"/>
</g>
</svg>
