<?xml version="1.0" encoding="utf-8"?>
<!-- Generator: Adobe Illustrator 17.0.0, SVG Export Plug-In . SVG Version: 6.00 Build 0)  -->
<!DOCTYPE svg PUBLIC "-//W3C//DTD SVG 1.1//EN" "http://www.w3.org/Graphics/SVG/1.1/DTD/svg11.dtd">
<svg version="1.1" id="Layer_1" xmlns="http://www.w3.org/2000/svg" xmlns:xlink="http://www.w3.org/1999/xlink" x="0px" y="0px"
	 width="50px" height="46.07px" viewBox="0 -0.479 50 46.07" enable-background="new 0 -0.479 50 46.07" xml:space="preserve">
<g id="OoWB8v.tif">
	
		<image overflow="visible" enable-background="new    " width="70" height="201" id="Layer_0_1_" xlink:href="705891F6A237FDBF.png"  transform="matrix(0.3333 0 0 0.338 87 3.3627)">
	</image>
</g>
<g>
	<path fill="#FFFFFF" d="M25,2.2c5.679,0,10.3,4.621,10.3,10.3v20c0,5.679-4.621,10.3-10.3,10.3s-10.3-4.621-10.3-10.3v-20
		C14.7,6.821,19.321,2.2,25,2.2 M25-0.479c-6.904,0-13.477,6.075-13.477,12.979v20c0,6.904,6.573,13.091,13.477,13.091
		S38.109,39.404,38.109,32.5v-20C38.109,5.596,31.904-0.479,25-0.479L25-0.479z"/>
</g>
<path fill="#FFFFFF" d="M26.375,16.774c0,0.583-0.616,1.055-1.375,1.055l0,0c-0.759,0-1.375-0.472-1.375-1.055v-4.72
	C23.625,11.472,24.241,11,25,11l0,0c0.759,0,1.375,0.472,1.375,1.055V16.774z"/>
</svg>
